<?xml version="1.0" standalone="no"?>
<!DOCTYPE svg PUBLIC "-//W3C//DTD SVG 20010904//EN"
 "http://www.w3.org/TR/2001/REC-SVG-20010904/DTD/svg10.dtd">
<svg version="1.0" xmlns="http://www.w3.org/2000/svg"
 width="500.000000pt" height="500.000000pt" viewBox="0 0 500.000000 500.000000"
 preserveAspectRatio="xMidYMid meet">

<g transform="translate(0.000000,500.000000) scale(0.100000,-0.100000)"
fill="#000000" stroke="none">
<path d="M2209 4628 c-64 -69 -125 -222 -116 -295 4 -36 13 -54 47 -88 24 -24
53 -45 64 -47 11 -2 22 -10 24 -18 2 -12 -11 -19 -50 -27 -61 -12 -68 -10 -68
21 0 37 -42 89 -92 116 l-46 24 -59 -18 c-62 -19 -109 -55 -125 -96 -6 -14
-18 -63 -27 -109 l-18 -85 -112 -67 c-74 -45 -118 -65 -131 -62 -22 6 -60 -21
-60 -43 0 -7 -65 -78 -145 -159 -79 -80 -150 -157 -157 -170 -7 -12 -40 -63
-72 -111 -98 -146 -210 -393 -231 -506 l-7 -38 163 0 c1142 -2 3224 2 3228 5
2 3 -10 49 -28 103 -85 258 -229 497 -418 693 -46 47 -83 91 -83 98 0 19 30
74 57 103 24 25 25 28 14 100 -17 113 -60 135 -110 55 -11 -18 -25 -55 -31
-82 -13 -57 -38 -101 -51 -88 -4 4 -9 39 -11 77 l-3 69 43 15 c34 11 51 25 73
60 28 45 29 49 26 161 l-3 116 -43 3 c-54 4 -133 -32 -184 -84 l-38 -38 -60
33 c-42 23 -79 35 -120 38 -50 5 -65 11 -95 40 -66 62 -169 97 -213 73 -17 -9
-21 -8 -21 6 0 26 -81 173 -115 210 -51 54 -93 38 -62 -23 40 -76 28 -161 -25
-189 -26 -13 -35 -14 -54 -3 -27 14 -32 29 -10 29 8 0 22 8 32 17 15 16 15 18
-11 41 -28 24 -64 26 -107 7 -15 -6 -18 -2 -18 18 0 14 -5 38 -10 52 -8 21
-16 26 -38 23 -25 -3 -27 -7 -30 -50 -2 -27 -6 -48 -8 -48 -3 0 -17 9 -31 20
-45 35 -96 22 -74 -19 9 -16 5 -22 -32 -40 l-42 -21 -17 21 c-22 26 -23 74 -2
135 26 78 -3 100 -57 42z m32 -37 c-21 -38 -13 -125 16 -181 15 -29 33 -54 40
-57 12 -5 -1 -34 -54 -121 l-14 -22 -40 21 c-58 29 -86 92 -69 158 6 25 20 65
30 87 27 62 93 161 97 147 2 -7 0 -21 -6 -32z m622 -114 c45 -92 54 -150 30
-196 -20 -38 -55 -67 -93 -76 -23 -5 -29 1 -68 74 l-42 80 27 15 c76 39 91
108 48 231 -15 44 65 -60 98 -128z m-333 32 c0 -46 13 -56 45 -35 29 19 76 21
93 4 20 -20 14 -28 -23 -28 -44 0 -45 -14 -4 -63 17 -20 29 -42 27 -49 -2 -6
-19 8 -37 31 -36 46 -67 56 -56 19 12 -40 11 -43 -20 -43 -26 0 -30 4 -33 32
-4 35 -30 53 -38 25 -14 -45 -25 -62 -38 -62 -11 0 -13 10 -9 41 4 23 2 40 -3
37 -91 -43 -106 -47 -125 -37 -11 6 -19 16 -17 22 6 19 70 47 106 47 17 0 32
3 32 8 0 16 -18 34 -28 28 -5 -3 -15 1 -22 9 -9 11 -9 15 -1 15 18 0 66 -26
80 -44 23 -28 31 -17 31 42 0 32 3 62 7 66 13 13 33 -27 33 -65z m549 -145
c28 -15 64 -42 79 -60 25 -31 32 -34 80 -34 59 0 109 -18 159 -56 l34 -26 42
45 c59 63 152 106 198 92 15 -5 17 -10 8 -26 -6 -12 -7 -51 -3 -102 5 -67 3
-89 -10 -114 -19 -38 -60 -68 -105 -78 l-33 -7 6 -67 c10 -100 0 -146 -44
-192 -20 -21 -34 -39 -31 -39 4 0 29 16 58 35 58 39 108 116 119 183 4 23 10
42 15 42 5 0 9 8 9 18 0 11 9 27 20 37 19 17 22 18 37 2 10 -9 17 -34 18 -56
0 -22 4 -43 8 -47 13 -14 7 -35 -18 -57 -13 -12 -40 -65 -61 -117 -20 -52 -47
-110 -61 -128 -22 -29 -92 -89 -136 -117 -15 -9 -14 -12 3 -33 17 -20 22 -21
40 -10 18 11 23 10 36 -7 8 -11 23 -19 32 -17 10 1 3 -10 -19 -30 l-36 -33 2
-140 c2 -114 6 -150 24 -197 25 -68 28 -106 8 -89 -16 13 -28 5 -20 -15 12
-32 -16 -10 -71 55 -32 38 -78 85 -102 105 -37 31 -50 36 -93 36 -48 0 -52 -2
-75 -37 -14 -21 -30 -59 -36 -85 -14 -53 -46 -91 -59 -69 -5 8 -13 11 -18 8
-5 -3 -9 25 -9 67 1 66 -2 77 -36 132 -47 76 -84 222 -69 267 16 44 13 188 -4
236 -22 63 -69 125 -127 167 -29 21 -55 39 -57 41 -7 5 18 53 26 53 5 0 19
-23 33 -51 29 -58 74 -103 142 -139 46 -24 47 -24 67 -6 12 11 21 23 21 29 0
5 -18 29 -40 55 -22 25 -54 74 -71 108 -36 72 -35 104 6 165 l24 37 -20 38
c-18 34 -20 51 -15 125 4 55 2 89 -5 96 -6 6 -8 16 -5 22 12 19 81 12 135 -15z
m-679 -14 c0 -10 10 -24 21 -31 17 -9 26 -7 49 9 27 20 27 20 43 1 9 -10 25
-19 34 -19 11 -1 5 -6 -13 -14 -18 -8 -35 -19 -39 -25 -4 -8 -16 -3 -37 14
-16 14 -36 25 -44 25 -71 0 -128 -112 -98 -195 18 -52 18 -52 -9 -59 -13 -3
-40 -17 -60 -30 l-36 -25 6 47 c15 122 95 291 146 312 33 13 37 12 37 -10z
m258 -34 c43 -27 81 -91 111 -190 30 -97 29 -99 -25 -76 -25 11 -52 20 -59 20
-21 0 -25 14 -14 51 19 66 -26 179 -72 179 -22 0 -24 11 -7 28 17 17 23 15 66
-12z m279 -8 c-3 -7 -5 -2 -5 12 0 14 2 19 5 13 2 -7 2 -19 0 -25z m-504 -19
c12 -6 29 -20 38 -31 16 -20 16 -20 42 6 62 62 136 16 145 -89 7 -85 8 -84
-165 -87 -150 -3 -152 -3 -163 20 -25 56 4 156 52 179 30 15 26 15 51 2z m503
-146 c-1 -2 -34 3 -74 11 -39 7 -75 11 -79 7 -4 -3 -5 -2 -1 3 4 5 31 21 60
35 36 18 58 37 68 57 l15 32 7 -72 c3 -39 5 -72 4 -73z m-988 90 c14 -28 24
-111 17 -143 -8 -38 -45 -43 -45 -7 0 13 -6 32 -14 42 -12 16 -16 17 -30 6 -9
-7 -16 -19 -16 -25 0 -6 4 -5 9 3 6 9 16 11 27 6 16 -6 16 -8 4 -13 -23 -8
-30 -24 -19 -43 6 -11 5 -20 -1 -24 -5 -3 -14 9 -20 27 l-10 33 7 -35 c3 -19
7 -47 7 -62 1 -16 4 -28 7 -28 4 0 10 -11 13 -25 9 -34 32 -42 56 -20 11 10
20 13 20 7 0 -13 -49 -72 -59 -72 -12 0 -31 48 -31 78 l0 27 -15 -25 c-34 -59
-45 -92 -45 -139 0 -40 4 -53 22 -65 20 -14 24 -14 41 2 15 12 21 14 24 5 8
-23 49 -15 61 12 15 32 16 122 2 130 -7 4 -5 14 5 28 19 27 21 95 2 79 -8 -7
-23 -7 -50 1 -36 12 -46 33 -14 31 9 -1 15 3 14 10 -1 7 11 10 35 8 27 -3 39
1 47 15 6 10 11 13 11 6 0 -25 -13 -43 -34 -43 -19 -1 -20 -1 -3 -11 20 -12
47 4 47 27 0 8 7 14 16 14 13 0 15 -15 13 -102 -2 -99 -2 -102 24 -122 34 -27
34 -43 2 -58 -19 -8 -23 -16 -19 -33 8 -31 -22 -58 -53 -50 -16 4 -22 2 -18
-5 10 -17 -5 -50 -23 -50 -9 0 -26 7 -36 15 -17 13 -21 13 -33 -5 -19 -26 -47
-25 -66 3 -9 12 -16 16 -16 10 -1 -7 8 -22 19 -33 21 -21 46 -18 67 7 10 13
15 12 36 -2 24 -15 27 -15 46 4 12 12 21 26 21 31 0 6 7 10 15 10 23 0 55 37
55 65 0 28 16 32 47 10 28 -20 33 -11 42 78 4 40 12 81 18 92 11 18 13 16 31
-26 12 -26 36 -59 56 -74 l36 -27 -20 -25 c-22 -29 -60 -125 -60 -153 0 -12
-7 -20 -17 -21 -17 -1 -17 -2 0 -6 27 -7 21 -51 -11 -78 -16 -14 -32 -42 -40
-70 -7 -26 -21 -60 -32 -75 -43 -61 -177 -120 -270 -120 -105 0 -209 68 -250
161 -13 31 -25 87 -30 138 -7 77 -6 88 14 121 12 19 28 49 36 65 25 53 30 56
53 40 12 -8 31 -14 42 -14 20 1 20 1 0 6 -54 14 -57 39 -11 102 45 60 62 107
80 214 9 55 24 104 41 132 24 43 28 45 70 45 32 0 47 -5 53 -17z m736 -178
c115 -30 139 -71 96 -161 -40 -83 -127 -119 -285 -119 -93 0 -118 4 -160 23
-67 31 -91 56 -111 114 -16 49 -16 50 7 75 79 84 279 114 453 68z m-774 -90
c0 -8 5 -17 12 -21 7 -5 9 -2 5 9 -4 11 -2 14 9 10 11 -4 12 -9 3 -19 -16 -20
-24 -17 -37 11 -15 32 -15 38 -2 30 6 -3 10 -12 10 -20z m-342 -168 c23 -23
42 -48 42 -56 0 -8 -14 -39 -31 -70 -30 -52 -31 -59 -25 -127 6 -67 5 -73 -13
-79 -12 -3 -28 -2 -36 2 -13 8 -12 13 10 33 14 13 25 27 25 32 0 5 -15 -5 -32
-22 -30 -27 -82 -50 -115 -50 -24 0 -13 19 20 36 44 24 85 55 91 70 3 7 -15
-3 -41 -22 -60 -46 -124 -74 -167 -74 -54 0 -51 15 9 45 63 30 175 112 175
127 0 5 -17 -5 -37 -23 -66 -57 -153 -108 -209 -120 -90 -20 -87 -1 9 69 110
80 156 133 218 252 19 36 23 39 42 29 12 -6 41 -30 65 -52z m1272 -14 c80 -73
120 -151 120 -237 0 -49 -3 -57 -16 -52 -9 3 -31 6 -49 6 -29 0 -33 4 -39 33
-20 105 -174 109 -200 4 -17 -66 30 -127 99 -127 20 0 25 -5 25 -26 0 -29 14
-60 42 -91 11 -12 17 -26 14 -31 -10 -16 -118 -41 -191 -44 l-70 -3 -5 45 c-3
25 -9 51 -13 58 -5 7 -2 19 7 28 37 36 -4 114 -59 114 -31 0 -75 -41 -75 -70
0 -12 -13 -33 -30 -47 -16 -13 -30 -31 -30 -39 0 -23 -16 -16 -47 20 -60 67
-78 121 -78 226 1 77 5 105 24 147 35 79 44 84 116 67 117 -27 268 -7 340 45
22 16 43 30 46 30 3 1 34 -25 69 -56z m-1036 -556 c27 -7 51 -18 54 -26 3 -10
-1 -12 -17 -8 -11 3 -21 1 -21 -5 0 -6 -8 -8 -19 -5 -10 2 -25 0 -34 -5 -12
-6 -19 -3 -27 12 -6 11 -15 18 -20 15 -12 -8 -23 13 -16 32 4 11 13 13 29 8
12 -3 44 -12 71 -18z m196 8 c0 -8 5 -15 10 -15 6 0 10 -4 10 -10 0 -5 -11
-10 -25 -10 -14 0 -25 -5 -25 -11 0 -6 -10 -9 -22 -8 -13 2 -29 0 -36 -5 -16
-10 -25 -2 -27 24 -1 16 8 23 39 31 23 5 46 12 51 14 20 7 25 5 25 -10z m844
-31 c4 -19 10 -42 12 -49 4 -9 -4 -17 -23 -21 -15 -4 -33 -11 -40 -16 -8 -6
-18 5 -32 38 -12 26 -20 48 -19 49 6 4 83 34 89 34 4 1 10 -15 13 -35z m-345
5 l41 -12 -22 -36 c-35 -60 -41 -64 -71 -50 -29 13 -31 21 -20 82 4 25 10 36
18 33 7 -2 31 -10 54 -17z m-694 -102 c9 -44 14 -53 35 -56 52 -7 47 -41 -5
-41 -20 0 -62 -15 -101 -35 -73 -39 -90 -41 -149 -21 -31 11 -40 19 -40 38 0
22 3 23 95 25 145 4 142 2 140 76 -2 78 -2 82 8 73 4 -4 12 -31 17 -59z m157
-2 c8 -63 20 -82 58 -97 34 -13 118 -12 154 2 60 22 78 -40 23 -77 -48 -33
-90 -29 -175 17 -40 22 -82 40 -93 40 -23 0 -26 35 -3 44 13 5 14 17 8 72 -5
54 -4 66 7 62 9 -3 17 -27 21 -63z m950 -9 c23 -14 54 -78 63 -128 7 -36 6
-38 -19 -38 -16 0 -25 4 -21 10 3 6 13 10 21 10 11 0 14 6 9 23 -14 50 -28 77
-40 77 -7 0 -15 9 -18 20 -3 14 -14 20 -32 20 -17 0 -24 4 -19 11 4 7 1 10 -7
7 -8 -3 -13 -13 -11 -23 3 -13 -1 -16 -12 -12 -9 4 -15 3 -15 -1 1 -4 0 -10
-1 -14 -1 -5 -3 -14 -4 -20 -1 -7 -9 -12 -19 -12 -10 1 -17 -5 -17 -15 -1 -14
-2 -14 -11 1 -15 26 11 69 56 96 21 12 67 7 97 -12z m-462 -11 c22 -14 46 -38
55 -54 19 -38 19 -40 -6 -34 -14 4 -17 8 -9 13 14 8 5 30 -11 30 -6 0 -8 -3
-5 -8 2 -4 -7 -12 -20 -19 -18 -8 -24 -8 -25 0 -3 23 3 42 14 50 13 8 -8 27
-28 26 -5 0 -4 -3 3 -6 23 -9 12 -23 -18 -23 -23 0 -30 -4 -30 -20 0 -11 -4
-20 -9 -20 -14 0 -19 23 -10 48 5 13 5 22 -1 22 -5 0 -12 -10 -15 -23 -4 -13
-13 -24 -20 -24 -19 0 -2 31 27 51 32 22 62 20 108 -9z m-540 -25 c0 -5 -4
-10 -10 -10 -5 0 -10 5 -10 10 0 6 5 10 10 10 6 0 10 -4 10 -10z m491 -53 c-8
-8 -11 -3 -11 19 1 25 2 27 11 11 8 -14 8 -22 0 -30z m529 12 c0 -11 -4 -17
-10 -14 -5 3 -10 13 -10 21 0 8 5 14 10 14 6 0 10 -9 10 -21z m-660 -9 c0 -5
-5 -10 -11 -10 -5 0 -7 5 -4 10 3 6 8 10 11 10 2 0 4 -4 4 -10z m26 -15 c-4
-16 -2 -25 5 -25 8 0 8 -4 -1 -15 -11 -13 -7 -15 26 -15 22 0 53 4 71 9 20 6
35 5 42 -2 7 -7 14 -2 22 16 13 28 24 34 34 17 3 -5 12 -7 20 -3 11 3 15 -2
15 -18 0 -19 -2 -21 -10 -9 -8 13 -10 12 -10 -2 0 -15 -10 -18 -69 -18 -37 0
-89 -3 -115 -6 -46 -7 -46 -6 -46 22 0 33 10 74 17 74 3 0 2 -11 -1 -25z m445
-38 c-13 -13 -15 11 -4 40 7 16 8 15 11 -6 2 -13 -1 -28 -7 -34z m-884 27 c-3
-3 -12 -4 -19 -1 -8 3 -5 6 6 6 11 1 17 -2 13 -5z m520 -10 c-3 -3 -12 -4 -19
-1 -8 3 -5 6 6 6 11 1 17 -2 13 -5z m542 -40 c2 -2 -36 -3 -85 -3 -70 2 -80 3
-49 9 37 7 124 3 134 -6z"/>
<path d="M2543 4375 c0 -8 4 -15 9 -15 4 0 8 7 8 15 0 8 -4 15 -8 15 -5 0 -9
-7 -9 -15z"/>
<path d="M3565 4188 c1 -12 7 -24 13 -26 13 -4 15 8 6 32 -9 23 -21 19 -19 -6z"/>
<path d="M3125 4094 c-18 -18 -17 -55 2 -61 16 -6 45 41 37 61 -8 20 -18 20
-39 0z"/>
<path d="M3291 4014 c-15 -33 -6 -64 19 -64 34 0 42 82 9 88 -9 2 -21 -8 -28
-24z m29 -4 c0 -5 -2 -10 -4 -10 -3 0 -8 5 -11 10 -3 6 -1 10 4 10 6 0 11 -4
11 -10z"/>
<path d="M3721 3964 c0 -11 3 -14 6 -6 3 7 2 16 -1 19 -3 4 -6 -2 -5 -13z"/>
<path d="M3672 3940 c0 -14 2 -19 5 -12 2 6 2 18 0 25 -3 6 -5 1 -5 -13z"/>
<path d="M3083 3931 c-14 -23 -5 -35 14 -20 14 12 18 39 5 39 -4 0 -13 -9 -19
-19z"/>
<path d="M3160 3910 c0 -23 4 -30 20 -30 23 0 25 17 6 43 -19 25 -26 21 -26
-13z"/>
<path d="M3073 3805 l10 -35 62 0 c51 0 65 4 83 23 l21 22 -65 -3 c-47 -3 -72
1 -89 12 -33 22 -35 21 -22 -19z"/>
<path d="M3512 3428 c6 -18 28 -21 28 -4 0 9 -7 16 -16 16 -9 0 -14 -5 -12
-12z"/>
<path d="M2396 4205 c-9 -14 -23 -25 -31 -25 -24 0 -18 -47 7 -64 12 -9 30
-16 40 -16 26 0 58 36 58 65 0 24 -31 65 -49 65 -5 0 -16 -11 -25 -25z m49
-75 c-3 -5 -11 -10 -16 -10 -6 0 -7 5 -4 10 3 6 11 10 16 10 6 0 7 -4 4 -10z"/>
<path d="M2557 4205 c-10 -14 -24 -25 -32 -25 -22 0 -18 -37 5 -60 11 -11 29
-20 40 -20 13 0 20 7 20 20 0 11 5 20 11 20 6 0 8 -7 5 -16 -5 -14 -4 -15 9
-4 23 19 19 76 -7 94 -29 20 -30 20 -51 -9z"/>
<path d="M1733 3710 c2 -34 4 -35 42 -37 l40 -1 -35 6 c-28 6 -36 13 -42 37
-6 29 -6 29 -5 -5z"/>
<path d="M2383 4003 c-18 -7 -16 -58 2 -73 20 -17 62 -5 70 20 13 42 -27 72
-72 53z m41 -9 c20 -8 21 -50 1 -58 -24 -9 -45 4 -45 28 0 34 12 42 44 30z"/>
<path d="M2562 3998 c-7 -7 -12 -21 -12 -33 0 -12 5 -26 12 -33 7 -7 21 -12
33 -12 12 0 26 5 33 12 7 7 12 21 12 33 0 12 -5 26 -12 33 -7 7 -21 12 -33 12
-12 0 -26 -5 -33 -12z m62 -21 c9 -14 7 -21 -7 -32 -25 -18 -47 -9 -47 19 0
40 32 48 54 13z"/>
<path d="M2601 3972 c-1 -8 -6 -10 -13 -6 -10 5 -10 4 -1 -6 15 -16 28 -8 20
12 -4 11 -6 11 -6 0z"/>
<path d="M2337 3592 c-10 -10 -18 -32 -19 -48 -1 -16 -13 -39 -26 -52 -18 -18
-22 -29 -18 -50 8 -31 40 -62 66 -62 28 0 70 39 70 66 0 13 4 24 10 24 17 0
50 43 50 66 0 12 -9 33 -21 48 -25 32 -86 37 -112 8z"/>
<path d="M1608 3003 c-10 -2 -18 -11 -18 -20 0 -12 3 -13 14 -4 8 7 27 16 43
21 27 8 27 8 3 8 -14 0 -33 -2 -42 -5z"/>
<path d="M2130 2979 c-24 -7 -24 -7 5 -8 17 -1 41 -4 54 -8 16 -4 22 -2 18 4
-9 15 -47 20 -77 12z"/>
<path d="M2376 3091 c-4 -7 -5 -15 -2 -18 9 -9 19 4 14 18 -4 11 -6 11 -12 0z"/>
<path d="M2480 2949 c0 -5 5 -7 10 -4 6 3 10 8 10 11 0 2 -4 4 -10 4 -5 0 -10
-5 -10 -11z"/>
<path d="M1167 2775 c-3 -11 -22 -49 -41 -85 -43 -79 -46 -120 -10 -162 31
-38 30 -81 -2 -86 -28 -4 -54 23 -54 56 -1 26 -1 27 -16 7 -25 -32 -9 -91 46
-173 43 -63 50 -70 50 -47 0 15 14 59 32 98 25 56 32 88 34 145 2 41 8 80 14
87 8 10 7 14 -2 17 -7 3 -20 40 -28 84 -11 54 -18 73 -23 59z"/>
<path d="M337 2633 c-24 -6 -18 -37 8 -41 15 -2 17 -1 6 6 -17 12 -6 32 19 32
24 0 36 -20 19 -31 -11 -7 -11 -9 3 -9 26 0 33 21 13 37 -19 13 -35 15 -68 6z"/>
<path d="M447 2633 c-11 -10 -8 -43 3 -43 9 0 14 14 11 33 0 4 9 7 22 7 18 0
19 -2 7 -10 -13 -9 -13 -11 0 -20 23 -15 38 -12 36 8 -2 25 -60 44 -79 25z"/>
<path d="M613 2630 c-15 -6 -21 -15 -17 -25 8 -21 32 -19 30 3 -1 12 6 17 26
17 14 -1 24 3 22 7 -7 10 -33 9 -61 -2z"/>
<path d="M720 2616 c0 -14 5 -26 10 -26 6 0 10 9 10 19 0 11 -4 23 -10 26 -6
4 -10 -5 -10 -19z"/>
<path d="M760 2615 c0 -14 5 -25 10 -25 6 0 10 7 10 16 0 14 2 14 22 0 30 -22
48 -20 48 4 0 22 -16 27 -22 8 -3 -8 -11 -7 -28 5 -33 23 -40 21 -40 -8z"/>
<path d="M905 2632 c-6 -4 -15 -14 -22 -22 -10 -13 -5 -15 33 -15 24 0 43 4
41 9 -5 16 -42 36 -52 28z"/>
<path d="M1257 2622 c-10 -10 -17 -20 -17 -23 0 -2 20 -4 45 -4 25 0 45 1 45
4 0 6 -42 41 -50 41 -4 0 -14 -8 -23 -18z"/>
<path d="M1357 2634 c-10 -11 -9 -44 2 -44 5 0 13 9 16 20 3 11 13 20 21 20 9
0 12 -5 8 -11 -3 -6 0 -15 7 -20 21 -13 26 -11 24 14 -1 18 -8 23 -36 25 -19
2 -38 0 -42 -4z"/>
<path d="M1464 2625 c-9 -24 5 -35 44 -34 36 1 36 2 7 8 -38 8 -38 24 1 32 27
6 27 7 -9 8 -24 1 -40 -4 -43 -14z"/>
<path d="M1577 2634 c-11 -12 4 -24 29 -24 14 0 22 -4 19 -10 -3 -5 1 -10 10
-10 25 0 12 23 -16 31 l-24 6 25 5 c23 5 22 5 -6 7 -17 0 -34 -2 -37 -5z"/>
<path d="M550 2610 c0 -11 4 -20 9 -20 5 0 11 9 14 20 3 13 0 20 -9 20 -8 0
-14 -9 -14 -20z"/>
<path d="M990 2610 c0 -11 4 -20 8 -20 4 0 8 9 8 20 0 11 -4 20 -8 20 -4 0 -8
-9 -8 -20z"/>
<path d="M670 2600 c0 -5 4 -10 9 -10 6 0 13 5 16 10 3 6 -1 10 -9 10 -9 0
-16 -4 -16 -10z"/>
<path d="M1570 2600 c0 -6 7 -10 15 -10 8 0 15 2 15 4 0 2 -7 6 -15 10 -8 3
-15 1 -15 -4z"/>
<path d="M343 2552 l-23 -3 0 -260 0 -259 55 0 55 0 0 78 0 78 44 43 c24 24
49 41 54 37 5 -3 42 -58 82 -121 l72 -115 70 0 c75 0 74 -1 33 55 -12 17 -58
82 -102 146 l-81 117 99 98 c54 54 97 100 95 102 -2 2 -30 5 -63 7 l-58 3
-116 -114 c-63 -63 -118 -114 -122 -114 -3 0 -8 50 -9 112 l-3 111 -30 1 c-16
1 -40 0 -52 -2z"/>
<path d="M1533 2553 l-63 -4 0 -259 c0 -142 4 -261 8 -264 4 -2 27 -2 50 1
l42 6 0 195 c0 110 4 192 9 187 4 -6 25 -73 46 -150 21 -77 43 -160 50 -185
l12 -45 57 -3 c31 -2 56 1 56 5 1 16 99 375 104 381 3 3 6 -83 6 -191 l0 -197
55 0 55 0 0 260 0 260 -87 0 -88 0 -28 -103 c-56 -203 -68 -240 -78 -230 -5 5
-29 80 -54 168 -42 148 -55 177 -80 173 -5 -1 -38 -3 -72 -5z"/>
<path d="M2173 2552 l-33 -3 0 -260 0 -259 55 0 55 0 0 100 0 100 93 0 c143 1
208 40 223 136 15 100 -44 173 -145 180 -102 7 -215 10 -248 6z m231 -92 c14
-5 33 -21 42 -36 17 -25 17 -28 -2 -62 -22 -41 -43 -50 -131 -51 l-63 -1 0 80
0 80 64 0 c36 0 76 -4 90 -10z"/>
<path d="M3253 2552 l-63 -3 0 -259 0 -260 55 0 55 0 0 110 0 110 39 0 c50 0
76 -21 157 -131 l66 -89 64 0 64 0 -17 28 c-49 78 -108 155 -136 176 -29 23
-30 25 -12 31 50 16 87 41 106 72 50 80 -4 196 -95 207 -61 7 -212 12 -283 8z
m258 -100 c27 -23 30 -75 5 -100 -13 -13 -39 -18 -116 -20 l-100 -4 0 71 0 71
94 0 c76 0 98 -3 117 -18z"/>
<path d="M3834 2553 l-71 -4 1 -261 1 -260 185 0 c102 1 200 1 218 2 32 0 33
1 30 38 l-3 37 -157 3 -158 3 0 74 0 75 140 0 140 0 0 39 0 39 -96 7 c-52 4
-115 5 -140 1 l-44 -6 0 65 0 65 149 0 c141 0 150 1 156 20 12 38 -3 60 -43
60 -20 0 -82 2 -137 4 -55 2 -132 1 -171 -1z"/>
<path d="M4385 2541 c-66 -30 -89 -63 -89 -125 -1 -45 4 -59 24 -81 35 -38 88
-63 170 -80 74 -15 110 -30 122 -49 15 -22 8 -53 -17 -76 -20 -19 -36 -23 -83
-24 -68 -1 -103 17 -122 63 -11 29 -16 31 -62 31 -59 0 -67 -13 -40 -67 42
-80 103 -113 214 -113 98 0 137 13 182 59 30 31 39 49 43 85 12 103 -42 151
-212 191 -87 21 -115 38 -115 70 0 72 178 72 196 0 7 -26 16 -29 77 -18 37 6
39 7 33 36 -8 40 -41 75 -91 98 -55 25 -175 25 -230 0z"/>
<path d="M2763 2533 c-6 -18 -104 -254 -169 -409 -19 -45 -34 -84 -34 -88 0
-4 25 -6 56 -4 l56 3 22 55 22 55 118 0 118 0 22 -55 22 -55 57 -3 c31 -2 57
1 57 5 0 4 -48 122 -107 260 l-108 253 -63 0 c-51 0 -64 -3 -69 -17z m111
-197 c20 -49 36 -92 36 -97 0 -10 -143 -13 -152 -3 -5 5 8 43 58 163 8 19 16
32 18 30 3 -2 21 -44 40 -93z"/>
<path d="M890 2316 c0 -185 20 -238 105 -277 59 -27 194 -26 252 2 79 38 88
60 91 247 l4 162 -56 0 -56 0 0 -144 c0 -139 -1 -146 -24 -173 -22 -25 -31
-28 -86 -28 -57 1 -65 3 -91 33 l-29 32 0 140 0 140 -55 0 -55 0 0 -134z"/>
<path d="M377 1949 c-21 -3 -43 -11 -50 -18 -16 -16 11 -40 56 -48 45 -7 113
5 100 18 -6 6 -21 5 -42 -2 -24 -9 -39 -9 -58 0 -43 20 -22 36 46 34 34 -1 59
2 56 7 -7 11 -64 16 -108 9z"/>
<path d="M862 1950 c-52 -12 -62 -28 -32 -52 20 -16 35 -19 82 -16 56 4 77 12
65 24 -3 3 -22 1 -42 -6 -45 -15 -88 -6 -83 18 3 14 14 17 67 15 35 -1 60 2
55 6 -15 14 -76 19 -112 11z"/>
<path d="M1130 1946 c-19 -7 -43 -17 -52 -21 -13 -5 -18 -3 -18 9 0 9 -8 16
-20 16 -16 0 -20 -7 -20 -35 0 -28 4 -35 19 -35 10 0 21 7 25 15 7 19 36 19
64 -1 12 -8 32 -13 45 -11 20 4 19 5 -10 18 -39 16 -42 26 -8 35 14 3 25 10
25 15 0 12 -8 11 -50 -5z"/>
<path d="M2963 1953 c-19 -3 -23 -11 -23 -39 l0 -34 68 0 c80 0 92 6 85 43 -4
20 -11 27 -28 27 -12 0 -35 2 -51 4 -16 2 -39 2 -51 -1z m75 -20 c-10 -2 -28
-2 -40 0 -13 2 -5 4 17 4 22 1 32 -1 23 -4z m22 -33 c0 -5 -18 -10 -40 -10
-22 0 -40 5 -40 10 0 6 18 10 40 10 22 0 40 -4 40 -10z"/>
<path d="M3203 1953 l-63 -4 0 -34 0 -35 78 2 c69 2 71 2 20 5 -71 5 -77 23
-8 23 66 0 64 18 -2 23 l-53 3 58 2 c36 1 56 6 52 12 -3 6 -9 9 -13 8 -4 -1
-35 -3 -69 -5z"/>
<path d="M4413 1953 l-63 -4 0 -34 0 -35 78 2 c69 2 71 2 20 5 -71 5 -77 23
-8 23 66 0 64 18 -2 23 l-53 3 58 2 c36 1 56 6 52 12 -3 6 -9 9 -13 8 -4 -1
-35 -3 -69 -5z"/>
<path d="M4568 1952 c-30 -4 -38 -26 -12 -36 9 -3 31 -6 50 -6 19 0 34 -5 34
-11 0 -7 -20 -8 -57 -5 -40 4 -52 3 -38 -3 36 -17 145 -11 145 9 0 4 -10 12
-22 18 -21 10 -21 11 -3 11 30 1 5 18 -35 23 -19 2 -47 2 -62 0z m60 -19 c-10
-2 -26 -2 -35 0 -10 3 -2 5 17 5 19 0 27 -2 18 -5z"/>
<path d="M530 1915 c0 -28 4 -35 20 -35 11 0 20 7 20 15 0 11 11 15 40 15 27
0 43 -5 46 -15 12 -30 34 -16 34 20 0 37 -25 50 -36 20 -4 -9 -19 -15 -39 -15
-20 0 -35 6 -39 15 -3 8 -15 15 -26 15 -16 0 -20 -6 -20 -35z"/>
<path d="M740 1915 c0 -24 5 -35 15 -35 10 0 15 11 15 35 0 24 -5 35 -15 35
-10 0 -15 -11 -15 -35z"/>
<path d="M1230 1915 l0 -35 78 2 c76 2 76 2 15 5 -78 5 -83 23 -7 23 71 0 63
19 -9 22 l-52 1 60 7 60 7 -72 1 -73 2 0 -35z"/>
<path d="M1410 1915 c0 -28 4 -35 20 -35 13 0 20 7 20 20 0 25 17 25 55 0 50
-33 75 -23 75 31 0 12 -7 19 -20 19 -13 0 -20 -7 -20 -20 0 -25 -18 -25 -50 0
-14 11 -37 20 -52 20 -25 0 -28 -3 -28 -35z"/>
<path d="M1870 1915 c0 -36 22 -50 34 -20 3 10 19 15 48 15 24 0 49 4 57 9 28
18 -1 31 -70 31 l-69 0 0 -35z m105 15 c-3 -5 -19 -10 -36 -10 -16 0 -29 5
-29 10 0 6 16 10 36 10 21 0 33 -4 29 -10z"/>
<path d="M2068 1939 c-46 -26 -3 -59 77 -59 81 0 124 34 76 60 -25 13 -131 13
-153 -1z m129 -15 c8 -20 -13 -34 -52 -34 -39 0 -60 14 -52 34 5 11 19 16 52
16 33 0 47 -5 52 -16z"/>
<path d="M2280 1915 c0 -36 22 -50 34 -20 7 19 46 19 72 0 10 -8 30 -14 44
-14 l25 0 -22 11 c-27 13 -30 28 -7 28 9 0 14 6 12 13 -3 8 -31 13 -81 15
l-77 3 0 -36z m110 15 c0 -5 -16 -10 -35 -10 -19 0 -35 5 -35 10 0 6 16 10 35
10 19 0 35 -4 35 -10z"/>
<path d="M2480 1915 c0 -28 4 -35 19 -35 10 0 21 7 25 15 7 20 45 19 67 -1 9
-8 28 -14 41 -11 21 3 21 5 -10 17 -37 14 -38 31 -1 41 24 7 24 7 1 8 -12 1
-39 -6 -59 -14 -19 -8 -37 -15 -39 -15 -2 0 -4 7 -4 15 0 8 -9 15 -20 15 -16
0 -20 -7 -20 -35z"/>
<path d="M3330 1915 l0 -35 78 2 c69 2 71 2 20 5 -71 5 -77 23 -8 23 67 0 64
20 -2 22 l-53 1 55 7 55 7 -72 1 -73 2 0 -35z"/>
<path d="M3520 1915 c0 -28 4 -35 20 -35 11 0 20 7 20 15 0 11 11 15 41 15 50
0 43 19 -9 22 -30 1 -27 3 18 8 l55 7 -72 1 -73 2 0 -35z"/>
<path d="M3770 1915 c0 -28 4 -35 20 -35 11 0 20 7 20 14 0 11 15 16 53 18 38
2 52 7 52 18 0 12 -16 16 -72 18 l-73 3 0 -36z m110 15 c0 -5 -16 -10 -35 -10
-19 0 -35 5 -35 10 0 6 16 10 35 10 19 0 35 -4 35 -10z"/>
<path d="M3956 1915 c-39 -34 -39 -35 -13 -35 14 0 29 5 32 10 3 6 24 10 45
10 21 0 42 -4 45 -10 3 -5 16 -10 28 -10 19 0 18 3 -13 35 -43 45 -73 45 -124
0z m79 5 c3 -5 -3 -10 -14 -10 -12 0 -21 5 -21 10 0 6 6 10 14 10 8 0 18 -4
21 -10z"/>
<path d="M4140 1915 c0 -28 4 -35 20 -35 11 0 20 7 20 15 0 19 37 19 70 0 14
-8 34 -14 45 -14 19 0 19 0 2 13 -15 12 -15 15 -2 26 26 22 6 30 -76 30 l-79
0 0 -35z m110 15 c-20 -13 -60 -13 -60 0 0 6 17 10 38 10 27 0 33 -3 22 -10z"/>
<path d="M2768 1913 c7 -3 16 -2 19 1 4 3 -2 6 -13 5 -11 0 -14 -3 -6 -6z"/>
<path d="M875 1810 c-2 -3 14 -46 35 -96 136 -332 387 -628 696 -822 184 -115
410 -202 614 -238 147 -26 453 -26 600 0 500 88 950 402 1212 846 50 84 126
248 134 289 l6 26 -1647 0 c-906 0 -1648 -2 -1650 -5z"/>
</g>
</svg>
