<?xml version="1.0" standalone="no"?>
<!DOCTYPE svg PUBLIC "-//W3C//DTD SVG 20010904//EN"
 "http://www.w3.org/TR/2001/REC-SVG-20010904/DTD/svg10.dtd">
<svg version="1.0" xmlns="http://www.w3.org/2000/svg"
 width="160.000000pt" height="60.000000pt" viewBox="0 0 160.000000 60.000000"
 preserveAspectRatio="xMidYMid meet">

<g transform="translate(0.000000,60.000000) scale(0.100000,-0.100000)"
fill="#00923f" stroke="none">
<path d="M1413 518 c-4 -7 -6 -23 -4 -36 2 -15 -4 -25 -21 -31 -22 -8 -22 -9
-4 -17 14 -5 26 0 48 24 33 38 37 72 9 72 -11 0 -23 -6 -28 -12z"/>
<path d="M497 438 c-10 -5 -29 -7 -43 -4 -19 5 -24 3 -24 -14 0 -11 7 -20 15
-20 20 0 19 -9 -6 -67 -21 -50 -103 -143 -126 -143 -17 0 -17 0 7 60 18 45 18
51 4 57 -20 8 -26 -1 -48 -69 -31 -95 -2 -114 79 -52 26 19 44 31 41 25 -10
-15 12 -51 29 -51 8 0 33 16 55 36 40 36 40 36 40 11 0 -14 7 -28 16 -31 17
-7 64 15 84 38 11 15 14 15 25 0 14 -21 43 -13 87 24 17 15 29 20 26 12 -2 -8
-30 -30 -62 -49 -47 -28 -76 -36 -179 -51 -112 -17 -298 -55 -389 -80 -28 -8
-38 -16 -38 -32 0 -15 4 -18 18 -13 73 28 432 105 492 105 10 0 20 -9 23 -20
9 -35 73 -24 123 21 24 22 180 42 504 63 l205 13 -155 2 c-144 1 -360 -10
-474 -25 -47 -6 -48 -6 -41 17 6 22 51 69 66 69 3 0 4 -10 2 -23 -3 -13 2 -29
11 -36 17 -15 45 -3 87 36 26 24 26 24 32 4 8 -32 48 -26 95 14 l41 36 -6 -36
c-5 -31 -3 -35 16 -35 12 0 20 4 17 8 -6 10 92 142 105 142 11 0 11 -4 -2 -59
-11 -50 -4 -81 19 -81 17 0 112 93 131 129 23 43 -13 21 -57 -35 -24 -30 -47
-52 -51 -49 -5 2 -4 27 2 54 18 92 -11 106 -78 38 l-43 -42 6 34 c4 30 3 33
-12 28 -10 -4 -20 -7 -22 -7 -2 0 -4 -7 -4 -15 0 -17 -84 -105 -100 -105 -16
0 -11 41 10 89 l20 43 -22 -6 c-13 -3 -40 -6 -60 -6 -31 0 -48 -9 -99 -55 -34
-30 -66 -55 -71 -55 -11 0 -3 29 22 81 16 35 16 36 -2 31 -10 -2 -21 -8 -24
-13 -3 -5 -19 -9 -35 -9 -45 0 -85 -25 -119 -74 -31 -46 -87 -93 -97 -82 -3 3
2 25 11 49 21 55 20 67 -4 67 -11 0 -20 -6 -20 -14 0 -7 -23 -38 -52 -67 -68
-72 -73 -51 -18 87 24 58 41 107 39 109 -2 2 -12 -1 -22 -7z m498 -88 c6 -10
-72 -100 -88 -100 -16 0 1 62 25 87 22 24 52 30 63 13z m-215 -22 c0 -13 -76
-88 -90 -88 -20 0 -4 46 28 83 17 19 62 23 62 5z m-50 -148 c-24 -15 -36 -11
-14 4 10 8 21 12 24 10 2 -3 -2 -9 -10 -14z m-25 -50 c-3 -5 -15 -10 -26 -10
-10 0 -19 5 -19 10 0 6 12 10 26 10 14 0 23 -4 19 -10z"/>
<path d="M1446 396 c-34 -42 -45 -66 -28 -66 4 0 13 9 20 20 17 27 29 25 35
-6 4 -20 -2 -33 -22 -50 -21 -19 -24 -26 -15 -41 25 -41 83 -19 84 32 0 11 14
32 31 46 20 16 29 31 24 38 -5 9 -15 5 -36 -15 l-28 -27 -5 24 c-2 13 -4 37
-3 53 3 44 -16 41 -57 -8z m44 -113 c0 -5 -4 -15 -10 -23 -11 -18 -25 -7 -17
15 6 15 27 21 27 8z"/>
<path d="M618 402 c-34 -23 -51 -52 -30 -52 12 0 72 58 72 69 0 13 3 14 -42
-17z"/>
<path d="M395 400 c-10 -11 -27 -22 -39 -26 -29 -9 -50 -44 -27 -44 14 0 70
49 82 71 13 24 7 24 -16 -1z"/>
<path d="M196 380 c-47 -15 -106 -61 -132 -105 -26 -45 -32 -103 -12 -123 15
-15 63 -16 90 -1 21 11 21 11 -1 -20 -22 -31 -18 -37 14 -25 16 6 100 162 92
170 -2 3 -27 -1 -56 -7 -34 -7 -55 -18 -62 -31 -9 -17 -9 -20 2 -16 66 25 77
15 34 -27 -46 -47 -93 -23 -81 40 9 48 76 115 114 115 15 0 33 -5 39 -11 8 -8
15 -4 26 12 27 37 1 49 -67 29z"/>
</g>
</svg>
