<svg width="344.5275634765625px" height="115.57844543457031px" xmlns="http://www.w3.org/2000/svg" viewBox="77.73621826171876 17.210777282714844 344.5275634765625 115.57844543457031" style="background: none;" preserveAspectRatio="xMidYMid"><defs><filter id="editing-extrude-glow"><feFlood flood-color="#cfd7cc" result="flood-1"></feFlood><feMorphology operator="erode" radius="1" in="SourceAlpha" result="erode"></feMorphology><feComposite operator="in" in="flood-1" in2="erode" result="comp1"></feComposite><feConvolveMatrix order="5,5" divisor="1" in="comp1" result="convolve" kernelMatrix="0 0 0 0 0 0 0 0 0 0 1 1 1 1 1 0 0 0 0 0 0 0 0 0 0"></feConvolveMatrix><feOffset dx="-5" dy="0" in="convolve" result="extrude"></feOffset><feComposite operator="in" in="flood-1" in2="extrude" result="comp-extrude"></feComposite><feFlood flood-color="#f8f9f8" result="flood-2"></feFlood><feComposite operator="in" in="flood-2" in2="SourceAlpha" result="comp2"></feComposite><feMorphology operator="dilate" radius="1" in="comp2" result="dilate"></feMorphology><feOffset dx="-7.5" dy="0" in="dilate" result="offset"></feOffset><feGaussianBlur in="offset" stdDeviation="5.8" result="blur"></feGaussianBlur><feComponentTransfer in="blur" result="shadow"><feFuncA type="linear" slope="0.8" intercept="-0.2"></feFuncA></feComponentTransfer><feMerge><feMergeNode in="shadow"></feMergeNode><feMergeNode in="comp-extrude"></feMergeNode><feMergeNode in="SourceGraphic"></feMergeNode></feMerge></filter></defs><g filter="url(#editing-extrude-glow)"><g transform="translate(114.22499656677246, 100.92000007629395)"><path d="M4.99 0L4.99-44.80L26.37-44.80L26.37-41.41L8.58-41.41L8.58-26.43L19.52-26.43L18.05-22.91L8.58-22.91L8.58 0L4.99 0ZM57.34-11.78L57.34-11.78Q57.34-6.40 54.40-2.88L54.40-2.88L54.40-2.88Q51.46 0.64 45.50 0.64L45.50 0.64L45.50 0.64Q39.55 0.64 36.51-2.91L36.51-2.91L36.51-2.91Q33.47-6.46 33.47-11.78L33.47-11.78L33.47-20.22L33.47-20.22Q33.47-26.30 36.58-29.54L36.58-29.54L36.58-29.54Q39.68-32.77 45.50-32.77L45.50-32.77L45.50-32.77Q51.07-32.77 54.21-29.41L54.21-29.41L54.21-29.41Q57.34-26.05 57.34-20.22L57.34-20.22L57.34-11.78ZM53.76-20.22L53.76-20.22Q53.76-25.02 51.55-27.26L51.55-27.26L51.55-27.26Q49.34-29.50 45.50-29.50L45.50-29.50L45.50-29.50Q41.54-29.50 39.30-27.26L39.30-27.26L39.30-27.26Q37.06-25.02 37.06-20.22L37.06-20.22L37.06-11.14L37.06-11.14Q37.06-7.30 39.33-4.93L39.33-4.93L39.33-4.93Q41.60-2.56 45.50-2.56L45.50-2.56L45.50-2.56Q49.47-2.56 51.62-4.90L51.62-4.90L51.62-4.90Q53.76-7.23 53.76-11.14L53.76-11.14L53.76-20.22ZM88.32-11.78L88.32-11.78Q88.32-6.40 85.38-2.88L85.38-2.88L85.38-2.88Q82.43 0.64 76.48 0.64L76.48 0.64L76.48 0.64Q70.53 0.64 67.49-2.91L67.49-2.91L67.49-2.91Q64.45-6.46 64.45-11.78L64.45-11.78L64.45-20.22L64.45-20.22Q64.45-26.30 67.55-29.54L67.55-29.54L67.55-29.54Q70.66-32.77 76.48-32.77L76.48-32.77L76.48-32.77Q82.05-32.77 85.18-29.41L85.18-29.41L85.18-29.41Q88.32-26.05 88.32-20.22L88.32-20.22L88.32-11.78ZM84.74-20.22L84.74-20.22Q84.74-25.02 82.53-27.26L82.53-27.26L82.53-27.26Q80.32-29.50 76.48-29.50L76.48-29.50L76.48-29.50Q72.51-29.50 70.27-27.26L70.27-27.26L70.27-27.26Q68.03-25.02 68.03-20.22L68.03-20.22L68.03-11.14L68.03-11.14Q68.03-7.30 70.30-4.93L70.30-4.93L70.30-4.93Q72.58-2.56 76.48-2.56L76.48-2.56L76.48-2.56Q80.45-2.56 82.59-4.90L82.59-4.90L82.59-4.90Q84.74-7.23 84.74-11.14L84.74-11.14L84.74-20.22ZM95.42-22.14L95.42-22.14Q95.42-28.86 100.86-31.36L100.86-31.36L100.86-31.36Q103.49-32.58 107.14-32.58L107.14-32.58L107.14-32.58Q109.50-32.58 111.71-32L111.71-32L111.71-32Q113.92-31.42 115.46-30.34L115.46-30.34L115.46-44.80L119.04-44.80L119.04 0L115.52 0.32L115.52 0.32Q111.36 0.77 108.99 0.77L108.99 0.77L108.99 0.77Q106.62 0.77 104.54 0.32L104.54 0.32L104.54 0.32Q102.46-0.13 100.42-1.15L100.42-1.15L100.42-1.15Q98.11-2.30 96.77-4.54L96.77-4.54L96.77-4.54Q95.42-6.78 95.42-10.05L95.42-10.05L95.42-22.14ZM115.46-27.20L115.46-27.20Q113.73-28.16 111.49-28.77L111.49-28.77L111.49-28.77Q109.25-29.38 107.07-29.38L107.07-29.38L107.07-29.38Q103.49-29.38 101.22-27.62L101.22-27.62L101.22-27.62Q98.94-25.86 98.94-21.95L98.94-21.95L98.94-9.98L98.94-9.98Q98.94-2.50 109.25-2.50L109.25-2.50L109.25-2.50Q111.68-2.50 115.46-3.07L115.46-3.07L115.46-27.20ZM148.54 6.02L148.54 6.02Q140.86 6.02 138.18 0.70L138.18 0.70L138.18 0.70Q132.80 0.51 128.99-2.50L128.99-2.50L128.99-2.50Q125.18-5.50 125.18-11.84L125.18-11.84L125.18-32.45L125.18-32.45Q125.18-39.04 128.80-42.43L128.80-42.43L128.80-42.43Q132.42-45.82 138.75-45.82L138.75-45.82L138.75-45.82Q145.09-45.82 148.58-42.24L148.58-42.24L148.58-42.24Q152.06-38.66 152.06-32.38L152.06-32.38L152.06-11.84L152.06-11.84Q152.06-6.27 149.15-3.30L149.15-3.30L149.15-3.30Q146.24-0.32 141.76 0.45L141.76 0.45L141.76 0.45Q143.55 2.62 148.54 2.56L148.54 2.56L148.54 6.02ZM148.54-33.02L148.54-33.02Q148.54-37.70 145.82-40.06L145.82-40.06L145.82-40.06Q143.10-42.43 138.62-42.43L138.62-42.43L138.62-42.43Q134.14-42.43 131.46-40.06L131.46-40.06L131.46-40.06Q128.77-37.70 128.77-33.02L128.77-33.02L128.77-11.90L128.77-11.90Q128.77-7.81 131.04-5.47L131.04-5.47L131.04-5.47Q133.31-3.14 137.02-2.75L137.02-2.75L137.02-2.75Q136.77-4.29 136.77-6.46L136.77-6.46L136.77-11.14L140.35-11.14L140.35-6.53L140.35-6.53Q140.35-3.90 140.54-2.82L140.54-2.82L140.54-2.82Q144.19-3.26 146.37-5.54L146.37-5.54L146.37-5.54Q148.54-7.81 148.54-11.97L148.54-11.97L148.54-33.02ZM178.94 0L179.20-3.26L179.20-3.26Q177.66-1.34 175.33-0.32L175.33-0.32L175.33-0.32Q172.99 0.70 170.62 0.70L170.62 0.70L170.62 0.70Q158.59 0.70 158.59-11.01L158.59-11.01L158.59-32.06L162.18-32.06L162.18-10.56L162.18-10.56Q162.18-6.46 164.45-4.48L164.45-4.48L164.45-4.48Q166.72-2.50 170.62-2.50L170.62-2.50L170.62-2.50Q174.46-2.50 176.67-4.45L176.67-4.45L176.67-4.45Q178.88-6.40 178.88-10.56L178.88-10.56L178.88-32.06L182.46-32.06L182.46 0L178.94 0ZM208.58-2.24L208.58-2.24Q206.27-0.77 203.33 0L203.33 0L203.33 0Q200.38 0.77 197.44 0.77L197.44 0.77L197.44 0.77Q192.70 0.77 189.92-1.57L189.92-1.57L189.92-1.57Q187.14-3.90 187.14-8.58L187.14-8.58L187.14-21.70L187.14-21.70Q187.14-26.88 190.37-29.76L190.37-29.76L190.37-29.76Q193.60-32.64 198.91-32.64L198.91-32.64L198.91-32.64Q204.22-32.64 207.20-29.79L207.20-29.79L207.20-29.79Q210.18-26.94 210.18-21.89L210.18-21.89L210.18-13.57L190.72-12.48L190.72-8.58L190.72-8.58Q190.72-5.50 192.70-3.97L192.70-3.97L192.70-3.97Q194.69-2.43 197.89-2.43L197.89-2.43L197.89-2.43Q202.37-2.43 207.17-4.99L207.17-4.99L208.58-2.24ZM206.59-22.34L206.59-22.34Q206.59-26.30 204.10-27.94L204.10-27.94L204.10-27.94Q201.60-29.57 198.85-29.57L198.85-29.57L198.85-29.57Q195.33-29.57 193.02-27.65L193.02-27.65L193.02-27.65Q190.72-25.73 190.72-21.63L190.72-21.63L190.72-16L206.59-16.77L206.59-22.34ZM235.33 0L235.58-3.26L235.58-3.26Q234.05-1.34 231.71-0.32L231.71-0.32L231.71-0.32Q229.38 0.70 227.01 0.70L227.01 0.70L227.01 0.70Q214.98 0.70 214.98-11.01L214.98-11.01L214.98-32.06L218.56-32.06L218.56-10.56L218.56-10.56Q218.56-6.46 220.83-4.48L220.83-4.48L220.83-4.48Q223.10-2.50 227.01-2.50L227.01-2.50L227.01-2.50Q230.85-2.50 233.06-4.45L233.06-4.45L233.06-4.45Q235.26-6.40 235.26-10.56L235.26-10.56L235.26-32.06L238.85-32.06L238.85 0L235.33 0ZM264.96-2.24L264.96-2.24Q262.66-0.77 259.71 0L259.71 0L259.71 0Q256.77 0.77 253.82 0.77L253.82 0.77L253.82 0.77Q249.09 0.77 246.30-1.57L246.30-1.57L246.30-1.57Q243.52-3.90 243.52-8.58L243.52-8.58L243.52-21.70L243.52-21.70Q243.52-26.88 246.75-29.76L246.75-29.76L246.75-29.76Q249.98-32.64 255.30-32.64L255.30-32.64L255.30-32.64Q260.61-32.64 263.58-29.79L263.58-29.79L263.58-29.79Q266.56-26.94 266.56-21.89L266.56-21.89L266.56-13.57L247.10-12.48L247.10-8.58L247.10-8.58Q247.10-5.50 249.09-3.97L249.09-3.97L249.09-3.97Q251.07-2.43 254.27-2.43L254.27-2.43L254.27-2.43Q258.75-2.43 263.55-4.99L263.55-4.99L264.96-2.24ZM262.98-22.34L262.98-22.34Q262.98-26.30 260.48-27.94L260.48-27.94L260.48-27.94Q257.98-29.57 255.23-29.57L255.23-29.57L255.23-29.57Q251.71-29.57 249.41-27.65L249.41-27.65L249.41-27.65Q247.10-25.73 247.10-21.63L247.10-21.63L247.10-16L262.98-16.77L262.98-22.34Z" fill="#0f878e"></path></g></g><style>text {
  font-size: 64px;
  font-family: Arial Black;
  dominant-baseline: central;
  text-anchor: middle;
}</style></svg>